<svg xmlns="http://www.w3.org/2000/svg" width="1024" height="1024" viewBox="0 0 1024 1024" version="1.1">
	<path d="M 0 512.001 L 0 1024.002 512.250 1023.751 L 1024.500 1023.500 1024.751 511.750 L 1025.002 0 512.501 0 L 0 0 0 512.001 M 0.496 512.500 C 0.496 794.100, 0.610 909.151, 0.750 768.168 C 0.890 627.186, 0.890 396.786, 0.750 256.168 C 0.610 115.551, 0.496 230.900, 0.496 512.500 M 501 261.049 C 485.533 262.449, 472.100 266.539, 458 274.141 C 430.486 288.975, 411.372 313.784, 401.481 347.500 C 393.996 373.015, 399.438 412.420, 413.772 436.500 C 432.276 467.585, 478.273 538.511, 492.757 558.294 C 501.310 569.977, 507.538 572.730, 518.322 569.595 C 522.646 568.338, 524.739 566.967, 528.011 563.250 C 533.198 557.358, 574.850 494.791, 589.758 470.500 C 617.622 425.096, 622.150 415.129, 625.479 391.872 C 629.206 365.830, 626.423 347.660, 615.317 325.526 C 605.054 305.074, 594.134 292.224, 577.443 280.962 C 560.375 269.444, 543.206 263.163, 522.969 261.032 C 512.627 259.943, 513.217 259.942, 501 261.049 M 500.500 281.050 C 488.048 282.434, 470.992 289.094, 459.307 297.133 C 441.841 309.150, 426.750 330.941, 420.814 352.716 C 419.127 358.903, 418.679 363.476, 418.630 375 C 418.513 402.511, 423.570 415.161, 454.089 463.695 C 469.014 487.431, 509.677 548.683, 511.088 549.555 C 512.920 550.687, 516.001 546.695, 532.743 521.500 C 565.371 472.395, 585.608 439.735, 594.933 421.133 C 613.288 384.518, 610.390 347.631, 586.713 316.500 C 572.653 298.013, 547.339 284.275, 521.500 281.109 C 511.685 279.906, 510.813 279.903, 500.500 281.050 M 381.500 332.921 C 369.105 337.503, 270.243 376.154, 268.086 377.261 C 266.759 377.943, 264.843 380.373, 263.828 382.663 C 262.055 386.665, 261.993 393.626, 262.242 562.840 L 262.500 738.854 264.590 741.677 C 267.950 746.216, 271.579 747.527, 276.869 746.113 C 279.321 745.457, 313.542 732.041, 352.914 716.301 C 392.286 700.561, 425.705 687.483, 427.178 687.238 C 428.650 686.994, 432.475 687.714, 435.678 688.838 C 445.915 692.431, 496.860 710.226, 553.500 729.994 C 601.171 746.631, 609.100 749.127, 613 748.727 C 617.229 748.293, 635.055 740.927, 727.256 701.518 C 748.305 692.521, 757.596 688.057, 759.006 686.265 C 760.980 683.755, 761 682.031, 761 512.514 C 761 389.785, 760.686 340.398, 759.892 338.119 C 758.628 334.495, 754.582 332, 749.966 332 C 748.203 332, 727.093 340.056, 701.667 350.432 C 676.825 360.570, 652.675 370.329, 648 372.118 C 643.325 373.907, 638.938 375.793, 638.250 376.308 C 636.972 377.266, 636.355 397, 637.603 397 C 637.935 397, 661.535 387.550, 690.047 376 C 718.560 364.450, 742.026 355, 742.194 355 C 742.362 355, 742.275 426.873, 742 514.718 L 741.500 674.436 681.500 700.167 L 621.500 725.897 621 677.699 C 620.649 643.859, 620.155 628.901, 619.343 627.489 C 615.878 621.469, 608.356 619.608, 604.873 623.909 C 603.098 626.100, 603 628.843, 603 676.111 C 603 704.999, 602.621 726, 602.100 726 C 601.605 726, 586.418 720.866, 568.350 714.592 C 536.142 703.406, 452.657 674.263, 446.250 671.968 L 443 670.804 442.956 588.152 C 442.922 523.525, 442.632 504.717, 441.629 501.911 C 440.924 499.938, 436.781 493.188, 432.423 486.911 L 424.500 475.500 424 571.447 L 423.500 667.395 354 695.205 C 315.775 710.501, 283.711 723.268, 282.747 723.576 C 281.081 724.109, 281.007 715.962, 281.247 558.393 L 281.500 392.649 286 390.867 C 288.475 389.887, 312.550 380.510, 339.500 370.030 C 366.450 359.550, 389.063 350.220, 389.750 349.296 C 391.039 347.566, 391.438 337.235, 390.370 333.250 C 389.645 330.547, 388.078 330.489, 381.500 332.921 M 505 332.158 C 481.859 335.915, 464.786 359.606, 468.710 382.514 C 471.336 397.849, 480.585 410.036, 494.720 416.785 C 502.169 420.342, 502.947 420.500, 513 420.500 C 522.834 420.500, 523.925 420.292, 530.198 417.224 C 559.143 403.066, 566.040 366.943, 544.013 344.866 C 540.922 341.768, 536.064 338.053, 533.218 336.610 C 525.109 332.501, 513.838 330.723, 505 332.158 M 504.591 352.573 C 495.796 355.796, 489.762 362.871, 487.899 372.148 C 484.178 390.679, 503.303 406.979, 521.252 400.573 C 538.711 394.343, 543.603 371.761, 530.362 358.520 C 523.494 351.652, 513.439 349.331, 504.591 352.573 M 603.173 484.292 C 602.458 485.153, 602 499.881, 601.799 528.542 C 601.498 571.274, 601.483 571.532, 599.086 577.500 C 597.385 581.732, 594.881 585.294, 590.588 589.588 C 582.747 597.428, 576.684 599.804, 561.318 601.056 C 544.046 602.464, 537.549 604.389, 526.751 611.297 C 514.017 619.442, 499 637.439, 499 644.554 C 499 648.986, 500.884 653.867, 503.039 655.021 C 508.640 658.018, 514.785 654.615, 519.892 645.689 C 524.051 638.419, 532.408 630.428, 539.500 626.939 C 545.790 623.844, 556.958 621.047, 563.140 621.017 C 569.639 620.986, 583.221 617.920, 589.434 615.082 C 598.021 611.158, 604.864 605.353, 610.299 597.382 C 620.048 583.083, 621.271 575.454, 620.823 531.720 L 620.483 498.500 617.263 492.322 C 615.493 488.924, 613.034 485.437, 611.800 484.572 C 609.081 482.668, 604.640 482.524, 603.173 484.292" stroke="none" fill="black" fill-rule="evenodd"/>
</svg>